<svg width="375" height="555" viewBox="0 0 375 555" fill="none" xmlns="http://www.w3.org/2000/svg">
<path d="M498.391 450.882C460.074 504.483 383.702 541.777 311.876 551.722C240.188 561.525 172.899 544 106.414 532.823C40.0764 521.625 -25.4661 516.655 -68.9717 488.196C-112.477 459.737 -134.084 407.929 -142.29 351.781C-150.634 295.776 -145.715 235.572 -117.606 175.737C-89.6455 115.922 -38.4955 56.4768 29.444 25.8661C97.393 -4.62402 181.993 -6.1378 253.31 11.3041C324.765 28.6045 382.808 65.1227 428.015 109.315C473.074 153.528 505.167 205.677 521.221 266.564C537.127 327.472 536.856 397.26 498.391 450.882Z" fill="#055244"/>
</svg>